<svg viewBox="0 0 120 120" xmlns="http://www.w3.org/2000/svg">
  <g transform="translate(60,60) scale(0.82) translate(0,-4)">
    <line x1="0" y1="48" x2="0" y2="58" stroke="#064E3B" stroke-width="3" stroke-linecap="round"/>
    <polygon points="0,-50 14,-30 26,-4 18,24 0,48 -18,24 -26,-4 -14,-30" fill="#064E3B"/>
    <g stroke="#ECFDF5" stroke-width="1.1" stroke-opacity="0.85" fill="none">
      <line x1="0" y1="-50" x2="0" y2="48"/>
      <line x1="14" y1="-30" x2="0" y2="-22"/><line x1="-14" y1="-30" x2="0" y2="-22"/>
      <line x1="14" y1="-30" x2="0" y2="2"/><line x1="-14" y1="-30" x2="0" y2="2"/>
      <line x1="26" y1="-4" x2="0" y2="2"/><line x1="-26" y1="-4" x2="0" y2="2"/>
      <line x1="26" y1="-4" x2="0" y2="26"/><line x1="-26" y1="-4" x2="0" y2="26"/>
      <line x1="18" y1="24" x2="0" y2="26"/><line x1="-18" y1="24" x2="0" y2="26"/>
    </g>
  </g>
</svg>
