<svg viewBox="0 0 64 64" xmlns="http://www.w3.org/2000/svg">
  <g transform="translate(32,32) scale(0.48) translate(0,-4)">
    <line x1="0" y1="48" x2="0" y2="58" stroke="#064E3B" stroke-width="3" stroke-linecap="round"/>
    <g stroke="#064E3B" stroke-width="0.9" stroke-opacity="0.45" stroke-linejoin="round">
      <polygon points="0,-50 14,-30 0,-22" fill="#A7F3D0"/>
      <polygon points="14,-30 0,2 0,-22" fill="#6EE7B7"/>
      <polygon points="14,-30 26,-4 0,2" fill="#34D399"/>
      <polygon points="26,-4 0,26 0,2" fill="#10B981"/>
      <polygon points="26,-4 18,24 0,26" fill="#059669"/>
      <polygon points="18,24 0,48 0,26" fill="#047857"/>
      <polygon points="0,-50 -14,-30 0,-22" fill="#6EE7B7"/>
      <polygon points="-14,-30 0,2 0,-22" fill="#A7F3D0"/>
      <polygon points="-14,-30 -26,-4 0,2" fill="#10B981"/>
      <polygon points="-26,-4 0,26 0,2" fill="#34D399"/>
      <polygon points="-26,-4 -18,24 0,26" fill="#047857"/>
      <polygon points="-18,24 0,48 0,26" fill="#059669"/>
    </g>
    <polygon points="0,-50 14,-30 26,-4 18,24 0,48 -18,24 -26,-4 -14,-30"
             fill="none" stroke="#064E3B" stroke-width="3" stroke-linejoin="round"/>
  </g>
</svg>
